<svg width="35" height="33" viewBox="0 0 35 33" fill="none" xmlns="http://www.w3.org/2000/svg">
<path d="M15.1751 0.0408799C6.80712 0.0408799 0 6.45902 0 14.3488C0 22.2387 6.80712 28.6568 15.1751 28.6568C17.7332 28.6568 20.2479 28.0845 22.3725 26.9807C22.5426 27.1738 22.7313 27.3517 22.9361 27.5122L27.2719 31.6002C27.6722 32.0249 28.1604 32.368 28.7065 32.6084C29.2526 32.8488 29.845 32.9815 30.4474 32.9982C31.0498 33.0149 31.6495 32.9154 32.2096 32.7057C32.7698 32.4959 33.2785 32.1805 33.7047 31.7787C34.1308 31.3769 34.4654 30.8972 34.6878 30.3691C34.9102 29.841 35.0158 29.2755 34.9981 28.7076C34.9804 28.1396 34.8397 27.581 34.5847 27.0661C34.3297 26.5512 33.9658 26.0909 33.5153 25.7135L29.1796 21.6255C28.9684 21.4263 28.7359 21.2482 28.4859 21.094C29.6565 19.0909 30.3936 16.7608 30.3936 14.308C30.3936 6.41814 23.5865 0 15.2185 0L15.1751 0.0408799ZM15.1751 4.12887C21.2018 4.12887 26.0145 8.66654 26.0145 14.3488C26.0145 17.0469 24.9739 19.5406 23.1529 21.3802C23.1095 21.4211 23.0662 21.4619 23.0228 21.5028C22.818 21.6633 22.6293 21.8412 22.4592 22.0343C20.5514 23.6695 17.95 24.6097 15.1318 24.6097C9.10507 24.6097 4.29239 20.072 4.29239 14.3897C4.29239 8.70742 9.10507 4.16975 15.1318 4.16975L15.1751 4.12887Z" fill="white"/>
</svg>
