<svg width="139" height="39" viewBox="0 0 139 39" fill="none" xmlns="http://www.w3.org/2000/svg">
<path d="M17.1512 10.2797C15.8037 8.19618 14.1391 7.1544 12.1574 7.1544C11.2855 7.1544 10.473 7.35522 9.72 7.75687C8.98679 8.15852 8.35266 8.71079 7.81762 9.41368C7.28257 10.0915 6.85652 10.9073 6.53945 11.8612C6.2422 12.8152 6.09358 13.8444 6.09358 14.9489C6.09358 16.0786 6.2422 17.1203 6.53945 18.0743C6.85652 19.0282 7.28257 19.8566 7.81762 20.5595C8.37248 21.2624 9.01652 21.8146 9.74973 22.2163C10.4829 22.6179 11.2756 22.8188 12.1277 22.8188C13.9905 22.8188 15.665 21.8146 17.1512 19.8064V28.5423L16.5567 28.8059C15.665 29.2075 14.8327 29.4962 14.0598 29.6719C13.287 29.8727 12.524 29.9732 11.771 29.9732C10.2253 29.9732 8.73909 29.6092 7.3123 28.8812C5.90532 28.1281 4.65688 27.0863 3.56697 25.7558C2.49688 24.4003 1.63486 22.8062 0.980918 20.9737C0.326973 19.116 0 17.0952 0 14.9113C0 12.7273 0.317064 10.7316 0.951193 8.92417C1.60514 7.09164 2.46716 5.52269 3.53725 4.21733C4.62716 2.88686 5.88551 1.85763 7.3123 1.12964C8.73909 0.376547 10.2352 0 11.8007 0C12.6925 0 13.5644 0.125516 14.4165 0.376547C15.2884 0.602475 16.2 0.966471 17.1512 1.46853V10.2797Z" fill="#105731" fill-opacity="0.83"/>
<path d="M25.4145 19.4298C25.4145 20.0825 25.5036 20.685 25.682 21.2373C25.8801 21.7644 26.1279 22.2288 26.4251 22.6305C26.7422 23.0321 27.1088 23.3459 27.5249 23.5719C27.9609 23.7978 28.4167 23.9107 28.8923 23.9107C29.3679 23.9107 29.8137 23.7978 30.2299 23.5719C30.6658 23.3459 31.0324 23.0321 31.3297 22.6305C31.6468 22.2288 31.8945 21.7644 32.0728 21.2373C32.271 20.685 32.3701 20.0951 32.3701 19.4675C32.3701 18.865 32.271 18.3002 32.0728 17.773C31.8945 17.2208 31.6468 16.7438 31.3297 16.3421C31.0324 15.9405 30.6658 15.6267 30.2299 15.4008C29.8137 15.1749 29.3679 15.0619 28.8923 15.0619C28.4167 15.0619 27.9609 15.1749 27.5249 15.4008C27.1088 15.6267 26.7422 15.9405 26.4251 16.3421C26.1279 16.7438 25.8801 17.2082 25.682 17.7354C25.5036 18.2625 25.4145 18.8274 25.4145 19.4298ZM19.737 19.3545C19.737 17.9236 19.9649 16.5932 20.4207 15.3631C20.8765 14.108 21.5106 13.0285 22.3231 12.1248C23.1356 11.196 24.0967 10.468 25.2064 9.94085C26.3359 9.41368 27.5645 9.1501 28.8923 9.1501C30.2001 9.1501 31.409 9.41368 32.5187 9.94085C33.6482 10.4429 34.6192 11.1583 35.4317 12.0872C36.264 12.9909 36.908 14.0829 37.3638 15.3631C37.8196 16.6183 38.0475 18.0115 38.0475 19.5428C38.0475 21.0741 37.8097 22.4799 37.3341 23.7601C36.8783 25.0153 36.2442 26.1073 35.4317 27.0361C34.6192 27.9398 33.6383 28.6427 32.489 29.1448C31.3594 29.6468 30.1308 29.8978 28.8031 29.8978C27.4952 29.8978 26.2864 29.6468 25.1767 29.1448C24.0669 28.6427 23.1058 27.9273 22.2934 26.9984C21.5007 26.0696 20.8765 24.9651 20.4207 23.6848C19.9649 22.3795 19.737 20.936 19.737 19.3545Z" fill="#105731" fill-opacity="0.83"/>
<path d="M41.1447 9.86554H46.5249V12.2378C47.9913 10.4555 49.6361 9.5643 51.4592 9.5643C53.7183 9.5643 55.4423 10.7692 56.6313 13.1792C57.8401 10.7441 59.5641 9.52664 61.8034 9.52664C62.5168 9.52664 63.1905 9.66471 63.8247 9.94085C64.4588 10.1919 65.0038 10.6061 65.4595 11.1835C65.9153 11.7357 66.272 12.4637 66.5296 13.3674C66.8071 14.2711 66.9458 15.3631 66.9458 16.6434V29.1824H61.5656V19.6558C61.5656 18.6767 61.5061 17.8734 61.3872 17.2459C61.2882 16.6183 61.1296 16.1288 60.9117 15.7773C60.7135 15.4259 60.4757 15.1874 60.1983 15.0619C59.9208 14.9364 59.6236 14.8736 59.3065 14.8736C57.5825 14.8736 56.7205 16.4677 56.7205 19.6558V29.1824H51.3403V19.6558C51.3403 18.6767 51.2907 17.8734 51.1917 17.2459C51.0926 16.5932 50.9439 16.0786 50.7458 15.702C50.5674 15.3255 50.3296 15.0744 50.0324 14.9489C49.7351 14.7983 49.3883 14.723 48.992 14.723C48.6551 14.723 48.3381 14.7858 48.0408 14.9113C47.7436 15.0368 47.4761 15.2878 47.2383 15.6644C47.0203 16.0158 46.8419 16.5179 46.7032 17.1706C46.5843 17.7981 46.5249 18.6265 46.5249 19.6558V29.1824H41.1447V9.86554Z" fill="#105731" fill-opacity="0.83"/>
<path d="M83.3172 19.5805C83.3172 18.978 83.228 18.4132 83.0496 17.886C82.8911 17.3337 82.6533 16.8568 82.3363 16.4551C82.0192 16.0535 81.6427 15.7397 81.2067 15.5137C80.7906 15.2627 80.3348 15.1372 79.8394 15.1372C79.3638 15.1372 78.9179 15.2502 78.5017 15.4761C78.0856 15.702 77.719 16.0158 77.4019 16.4175C77.1047 16.8191 76.857 17.2961 76.6588 17.8483C76.4805 18.3755 76.3913 18.9403 76.3913 19.5428C76.3913 20.1453 76.4805 20.7101 76.6588 21.2373C76.8372 21.7644 77.0849 22.2288 77.4019 22.6305C77.719 23.007 78.0856 23.3208 78.5017 23.5719C78.9377 23.7978 79.3935 23.9107 79.8691 23.9107C80.3447 23.9107 80.7906 23.7978 81.2067 23.5719C81.6228 23.3459 81.9796 23.0321 82.2768 22.6305C82.5939 22.2288 82.8416 21.7644 83.0199 21.2373C83.2181 20.7101 83.3172 20.1578 83.3172 19.5805ZM76.5399 38.822H71.1597V9.86554H76.5399V12.0119C77.6893 10.1793 79.2548 9.26306 81.2364 9.26306C82.3263 9.26306 83.337 9.53919 84.2684 10.0915C85.2196 10.6186 86.0419 11.3466 86.7355 12.2754C87.4291 13.2043 87.9641 14.2962 88.3407 15.5514C88.737 16.8066 88.9351 18.1496 88.9351 19.5805C88.9351 21.0113 88.737 22.3418 88.3407 23.5719C87.9641 24.8019 87.4291 25.8813 86.7355 26.8102C86.0618 27.739 85.2592 28.467 84.3278 28.9941C83.3964 29.5213 82.3858 29.7849 81.2959 29.7849C79.3935 29.7849 77.8082 28.9565 76.5399 27.2997V38.822Z" fill="#105731" fill-opacity="0.83"/>
<path d="M103.149 16.7187C102.97 15.7648 102.604 14.9991 102.049 14.4218C101.494 13.8444 100.82 13.5557 100.028 13.5557C99.1953 13.5557 98.5116 13.8318 97.9766 14.3841C97.4614 14.9364 97.1344 15.7146 96.9957 16.7187H103.149ZM96.8471 20.6724C96.8471 23.6095 97.937 25.078 100.117 25.078C101.286 25.078 102.168 24.4756 102.762 23.2706H107.964C106.914 27.6888 104.288 29.8978 100.087 29.8978C98.799 29.8978 97.6199 29.6594 96.5498 29.1824C95.4797 28.6803 94.5582 27.9775 93.7854 27.0737C93.0324 26.17 92.4478 25.0906 92.0316 23.8354C91.6155 22.5803 91.4074 21.1745 91.4074 19.6181C91.4074 18.0115 91.6056 16.5681 92.0019 15.2878C92.3982 13.9825 92.963 12.8779 93.6962 11.9742C94.4294 11.0705 95.3113 10.3802 96.3417 9.90319C97.392 9.40113 98.5711 9.1501 99.879 9.1501C101.167 9.1501 102.326 9.40113 103.357 9.90319C104.387 10.3802 105.259 11.083 105.973 12.0119C106.686 12.9407 107.231 14.0829 107.607 15.4384C107.984 16.7689 108.172 18.2751 108.172 19.957V20.6724H96.8471Z" fill="#105731" fill-opacity="0.83"/>
<path d="M117.455 15.5514V29.1824H112.075V15.5514H110.291V9.86554H112.075V4.06671H117.455V9.86554H120.517V15.5514H117.455Z" fill="#105731" fill-opacity="0.83"/>
<path d="M133.977 16.7187C133.798 15.7648 133.432 14.9991 132.877 14.4218C132.322 13.8444 131.648 13.5557 130.855 13.5557C130.023 13.5557 129.339 13.8318 128.804 14.3841C128.289 14.9364 127.962 15.7146 127.824 16.7187H133.977ZM127.675 20.6724C127.675 23.6095 128.765 25.078 130.945 25.078C132.114 25.078 132.996 24.4756 133.59 23.2706H138.792C137.742 27.6888 135.116 29.8978 130.915 29.8978C129.627 29.8978 128.448 29.6594 127.378 29.1824C126.308 28.6803 125.386 27.9775 124.613 27.0737C123.86 26.17 123.276 25.0906 122.859 23.8354C122.443 22.5803 122.235 21.1745 122.235 19.6181C122.235 18.0115 122.433 16.5681 122.83 15.2878C123.226 13.9825 123.791 12.8779 124.524 11.9742C125.257 11.0705 126.139 10.3802 127.17 9.90319C128.22 9.40113 129.399 9.1501 130.707 9.1501C131.995 9.1501 133.154 9.40113 134.185 9.90319C135.215 10.3802 136.087 11.083 136.8 12.0119C137.514 12.9407 138.059 14.0829 138.435 15.4384C138.812 16.7689 139 18.2751 139 19.957V20.6724H127.675Z" fill="#105731" fill-opacity="0.83"/>
</svg>
