<svg width="104" height="29" viewBox="0 0 104 29" fill="none" xmlns="http://www.w3.org/2000/svg">
<path d="M12.8326 7.46738C11.8243 5.95385 10.5789 5.19708 9.09622 5.19708C8.44384 5.19708 7.83594 5.34296 7.27253 5.63473C6.72394 5.92649 6.24948 6.32767 5.84916 6.83826C5.44883 7.33062 5.13006 7.92326 4.89283 8.61621C4.67043 9.30915 4.55923 10.0568 4.55923 10.8592C4.55923 11.6797 4.67043 12.4365 4.89283 13.1295C5.13006 13.8224 5.44883 14.4242 5.84916 14.9348C6.26431 15.4454 6.74618 15.8465 7.29477 16.1383C7.84336 16.4301 8.43643 16.5759 9.07398 16.5759C10.4677 16.5759 11.7206 15.8465 12.8326 14.3877V20.7336L12.3878 20.9251C11.7206 21.2168 11.0978 21.4265 10.5196 21.5542C9.94134 21.7001 9.37051 21.773 8.80709 21.773C7.65061 21.773 6.5386 21.5086 5.47107 20.9798C4.41837 20.4327 3.48429 19.676 2.66882 18.7095C1.86817 17.7248 1.22321 16.5668 0.733925 15.2356C0.244642 13.8862 0 12.4183 0 10.8318C0 9.24533 0.237228 7.79562 0.711685 6.48267C1.20097 5.15149 1.84593 4.01178 2.64658 3.06354C3.46205 2.09707 4.40355 1.34942 5.47107 0.82059C6.5386 0.27353 7.65802 0 8.82934 0C9.49654 0 10.1489 0.0911767 10.7865 0.27353C11.4388 0.437648 12.1209 0.702061 12.8326 1.06677V7.46738Z" fill="#105731"/>
<path d="M19.0151 14.1142C19.0151 14.5883 19.0819 15.0259 19.2153 15.4271C19.3636 15.8101 19.5489 16.1474 19.7713 16.4392C20.0085 16.7309 20.2828 16.9589 20.5942 17.123C20.9204 17.2871 21.2614 17.3692 21.6172 17.3692C21.9731 17.3692 22.3067 17.2871 22.618 17.123C22.9442 16.9589 23.2185 16.7309 23.4409 16.4392C23.6782 16.1474 23.8635 15.8101 23.9969 15.4271C24.1452 15.0259 24.2193 14.5974 24.2193 14.1415C24.2193 13.7039 24.1452 13.2936 23.9969 12.9106C23.8635 12.5095 23.6782 12.163 23.4409 11.8712C23.2185 11.5795 22.9442 11.3515 22.618 11.1874C22.3067 11.0233 21.9731 10.9412 21.6172 10.9412C21.2614 10.9412 20.9204 11.0233 20.5942 11.1874C20.2828 11.3515 20.0085 11.5795 19.7713 11.8712C19.5489 12.163 19.3636 12.5003 19.2153 12.8833C19.0819 13.2662 19.0151 13.6765 19.0151 14.1142ZM14.7673 14.0595C14.7673 13.02 14.9378 12.0536 15.2788 11.16C15.6198 10.2483 16.0943 9.46415 16.7022 8.80768C17.3101 8.13297 18.0292 7.60415 18.8595 7.2212C19.7046 6.83826 20.6239 6.64679 21.6172 6.64679C22.5958 6.64679 23.5002 6.83826 24.3305 7.2212C25.1757 7.58591 25.9022 8.10562 26.5101 8.78033C27.1328 9.4368 27.6147 10.23 27.9557 11.16C28.2967 12.0718 28.4672 13.0839 28.4672 14.1962C28.4672 15.3086 28.2893 16.3298 27.9334 17.2598C27.5924 18.1715 27.118 18.9648 26.5101 19.6395C25.9022 20.296 25.1683 20.8065 24.3083 21.1713C23.4632 21.536 22.5439 21.7183 21.5505 21.7183C20.572 21.7183 19.6675 21.536 18.8372 21.1713C18.0069 20.8065 17.2878 20.2868 16.6799 19.6121C16.0869 18.9374 15.6198 18.1351 15.2788 17.2051C14.9378 16.2568 14.7673 15.2083 14.7673 14.0595Z" fill="#105731"/>
<path d="M30.7845 7.1665H34.81V8.88974C35.9072 7.59503 37.1378 6.94767 38.5019 6.94767C40.1921 6.94767 41.482 7.82297 42.3716 9.57356C43.2761 7.80473 44.566 6.92032 46.2414 6.92032C46.7752 6.92032 47.2793 7.02061 47.7538 7.2212C48.2282 7.40356 48.6359 7.70444 48.977 8.12385C49.318 8.52503 49.5849 9.05386 49.7776 9.71033C49.9852 10.3668 50.089 11.16 50.089 12.09V21.1986H46.0635V14.2783C46.0635 13.5671 46.019 12.9836 45.9301 12.5277C45.8559 12.0718 45.7373 11.7162 45.5742 11.4609C45.4259 11.2056 45.248 11.0324 45.0405 10.9412C44.8329 10.85 44.6105 10.8045 44.3733 10.8045C43.0833 10.8045 42.4384 11.9624 42.4384 14.2783V21.1986H38.4129V14.2783C38.4129 13.5671 38.3758 12.9836 38.3017 12.5277C38.2276 12.0536 38.1164 11.6797 37.9681 11.4062C37.8347 11.1327 37.6567 10.9503 37.4343 10.8592C37.2119 10.7497 36.9525 10.695 36.6559 10.695C36.4039 10.695 36.1666 10.7406 35.9442 10.8318C35.7218 10.923 35.5217 11.1053 35.3438 11.3789C35.1807 11.6342 35.0472 11.9989 34.9434 12.473C34.8545 12.9289 34.81 13.5306 34.81 14.2783V21.1986H30.7845V7.1665Z" fill="#105731"/>
<path d="M62.3381 14.2236C62.3381 13.7859 62.2713 13.3756 62.1379 12.9927C62.0193 12.5915 61.8414 12.245 61.6041 11.9533C61.3669 11.6615 61.0852 11.4336 60.759 11.2695C60.4477 11.0871 60.1066 10.9959 59.736 10.9959C59.3801 10.9959 59.0465 11.078 58.7352 11.2421C58.4238 11.4062 58.1495 11.6342 57.9123 11.9259C57.6899 12.2177 57.5045 12.5642 57.3563 12.9653C57.2228 13.3483 57.1561 13.7586 57.1561 14.1962C57.1561 14.6339 57.2228 15.0442 57.3563 15.4271C57.4897 15.8101 57.6751 16.1474 57.9123 16.4392C58.1495 16.7127 58.4238 16.9406 58.7352 17.123C59.0614 17.2871 59.4024 17.3692 59.7582 17.3692C60.1141 17.3692 60.4477 17.2871 60.759 17.123C61.0704 16.9589 61.3373 16.7309 61.5597 16.4392C61.7969 16.1474 61.9822 15.8101 62.1157 15.4271C62.2639 15.0442 62.3381 14.643 62.3381 14.2236ZM57.2673 28.201H53.2418V7.1665H57.2673V8.72562C58.1273 7.39444 59.2986 6.72885 60.7813 6.72885C61.5967 6.72885 62.3529 6.92944 63.0497 7.33062C63.7614 7.71356 64.3767 8.24238 64.8957 8.91709C65.4146 9.5918 65.8149 10.385 66.0966 11.2968C66.3932 12.2086 66.5415 13.1842 66.5415 14.2236C66.5415 15.263 66.3932 16.2295 66.0966 17.123C65.8149 18.0165 65.4146 18.8007 64.8957 19.4754C64.3916 20.1501 63.7911 20.6789 63.0942 21.0618C62.3974 21.4448 61.6412 21.6363 60.8257 21.6363C59.4024 21.6363 58.2162 21.0345 57.2673 19.831V28.201Z" fill="#105731"/>
<path d="M77.1761 12.1448C77.0426 11.4518 76.7683 10.8956 76.3532 10.4762C75.938 10.0568 75.4339 9.8471 74.8409 9.8471C74.2181 9.8471 73.7066 10.0477 73.3063 10.4489C72.9208 10.85 72.6761 11.4153 72.5724 12.1448H77.1761ZM72.4612 15.0168C72.4612 17.1504 73.2766 18.2171 74.9076 18.2171C75.7823 18.2171 76.4421 17.7795 76.8869 16.9042H80.779C79.9931 20.1136 78.0286 21.7183 74.8853 21.7183C73.9216 21.7183 73.0394 21.5451 72.2388 21.1986C71.4381 20.8339 70.7487 20.3233 70.1704 19.6668C69.607 19.0104 69.1696 18.2262 68.8583 17.3145C68.5469 16.4027 68.3912 15.3815 68.3912 14.2509C68.3912 13.0839 68.5395 12.0353 68.836 11.1053C69.1325 10.1571 69.5551 9.35474 70.1037 8.69827C70.6523 8.04179 71.3121 7.54032 72.0831 7.19385C72.8689 6.82914 73.7511 6.64679 74.7296 6.64679C75.6934 6.64679 76.5608 6.82914 77.3317 7.19385C78.1027 7.54032 78.7551 8.05091 79.2889 8.72562C79.8226 9.40033 80.2304 10.23 80.5121 11.2147C80.7938 12.1812 80.9346 13.2753 80.9346 14.4971V15.0168H72.4612Z" fill="#105731"/>
<path d="M87.8802 11.2968V21.1986H83.8547V11.2968H82.5203V7.1665H83.8547V2.95413H87.8802V7.1665H90.1709V11.2968H87.8802Z" fill="#105731"/>
<path d="M100.242 12.1448C100.108 11.4518 99.8338 10.8956 99.4186 10.4762C99.0035 10.0568 98.4994 9.8471 97.9063 9.8471C97.2836 9.8471 96.7721 10.0477 96.3717 10.4489C95.9862 10.85 95.7416 11.4153 95.6378 12.1448H100.242ZM95.5266 15.0168C95.5266 17.1504 96.3421 18.2171 97.973 18.2171C98.8478 18.2171 99.5076 17.7795 99.9524 16.9042H103.844C103.059 20.1136 101.094 21.7183 97.9508 21.7183C96.9871 21.7183 96.1049 21.5451 95.3042 21.1986C94.5036 20.8339 93.8141 20.3233 93.2359 19.6668C92.6725 19.0104 92.2351 18.2262 91.9237 17.3145C91.6123 16.4027 91.4567 15.3815 91.4567 14.2509C91.4567 13.0839 91.6049 12.0353 91.9015 11.1053C92.198 10.1571 92.6206 9.35474 93.1692 8.69827C93.7177 8.04179 94.3775 7.54032 95.1485 7.19385C95.9343 6.82914 96.8165 6.64679 97.7951 6.64679C98.7588 6.64679 99.6262 6.82914 100.397 7.19385C101.168 7.54032 101.821 8.05091 102.354 8.72562C102.888 9.40033 103.296 10.23 103.578 11.2147C103.859 12.1812 104 13.2753 104 14.4971V15.0168H95.5266Z" fill="#105731"/>
</svg>
