<svg width="63" height="42" viewBox="0 0 63 42" fill="none" xmlns="http://www.w3.org/2000/svg">
<path d="M32.4327 41.4802L61.7752 25.3427C62.7094 24.8538 63.5102 24.0529 62.5999 23.5274L33.1514 7.72909C32.7099 7.47431 32.0392 7.3071 31.5892 7.55074L0.790673 24.1882C-0.143549 24.693 -0.311229 26.0991 0.619571 26.6087L28.5641 41.4531C29.1507 41.7703 29.8161 41.9396 30.4946 41.9444C31.173 41.9491 31.841 41.7891 32.4327 41.4802Z" fill="#FFB3A6"/>
<path d="M17.2546 20.3964L7.08769 25.7118C7.02594 25.7484 6.95321 25.7656 6.88019 25.7609C6.80717 25.7561 6.73771 25.7297 6.682 25.6856C6.62629 25.6414 6.58727 25.5817 6.57067 25.5154C6.55407 25.449 6.56077 25.3795 6.58978 25.3169L11.6647 12.4184L17.2546 20.3964Z" fill="#F7CB46"/>
<path d="M11.6314 12.7466L15.6078 30.787C15.629 30.8841 15.6747 30.9752 15.7412 31.0526C15.8078 31.13 15.8931 31.1916 15.9903 31.2322C16.0874 31.2728 16.1936 31.2913 16.2999 31.2862C16.4063 31.281 16.5098 31.2524 16.6019 31.2026L39.2611 19.043C39.3849 18.9766 39.4827 18.8752 39.5403 18.7534C39.5979 18.6317 39.6121 18.496 39.581 18.3662L35.3035 0.489867C35.2808 0.394024 35.2341 0.304513 35.1673 0.228599C35.1004 0.152685 35.0153 0.0925066 34.9188 0.0529496C34.8223 0.0133925 34.7171 -0.00442876 34.6118 0.000931985C34.5065 0.00629273 34.4041 0.0346844 34.3128 0.0838028L11.9496 12.0794C11.828 12.1455 11.7319 12.2455 11.6748 12.3652C11.6176 12.485 11.6025 12.6184 11.6314 12.7466Z" fill="#FF9676"/>
<path d="M18.3445 8.89137C17.8791 8.34199 17.294 8.17797 16.5942 8.46461C15.8944 8.75124 15.4957 9.37865 15.6651 10.0905C15.9388 9.94873 16.2177 9.79904 16.4881 9.65254C16.5311 9.48885 16.642 9.34768 16.7965 9.25993C16.9511 9.17218 17.1367 9.14501 17.3128 9.18437C17.7132 9.27196 17.9339 9.6828 18.0314 10.0427C18.0823 10.2053 18.0949 10.3761 18.0686 10.5436C18.0422 10.7112 17.9773 10.8715 17.8785 11.0136C17.7796 11.1558 17.6491 11.2764 17.4957 11.3675C17.3423 11.4585 17.1696 11.5177 16.9894 11.5411C16.447 11.6192 16.678 12.3867 17.217 12.3087C19.0016 12.0523 19.3369 10.0554 18.3445 8.89137Z" fill="#C9236D"/>
<path d="M24.6376 5.55357C24.1722 5.00419 23.587 4.84017 22.8872 5.1268C22.1874 5.41344 21.7887 6.04084 21.9581 6.75265C22.2319 6.61093 22.5107 6.46124 22.7811 6.31474C22.8241 6.15105 22.935 6.00987 23.0895 5.92213C23.2441 5.83438 23.4298 5.80721 23.6058 5.84657C24.0062 5.93415 24.2269 6.34499 24.3244 6.70488C24.3753 6.86745 24.388 7.03831 24.3616 7.20584C24.3352 7.37337 24.2704 7.53365 24.1715 7.6758C24.0727 7.81795 23.9421 7.93864 23.7887 8.02966C23.6353 8.12069 23.4626 8.17992 23.2824 8.20333C22.74 8.28136 22.971 9.0489 23.51 8.97087C25.2963 8.7145 25.6282 6.72558 24.6376 5.55357Z" fill="#C9236D"/>
<path d="M30.9003 2.26707C30.4349 1.71769 29.8497 1.55367 29.1499 1.8403C28.4501 2.12694 28.0514 2.75435 28.2208 3.46615C28.4946 3.32443 28.7735 3.17474 29.0438 3.02824C29.0868 2.86455 29.1977 2.72338 29.3523 2.63563C29.5068 2.54788 29.6925 2.52071 29.8685 2.56007C30.2689 2.64765 30.4896 3.0585 30.5872 3.41838C30.638 3.58095 30.6507 3.75181 30.6243 3.91934C30.5979 4.08687 30.5331 4.24716 30.4342 4.38931C30.3354 4.53146 30.2048 4.65214 30.0514 4.74317C29.898 4.83419 29.7253 4.89342 29.5451 4.91683C29.0027 4.99486 29.2337 5.7624 29.7727 5.68437C31.5573 5.4264 31.8927 3.43749 30.9003 2.26707Z" fill="#C9236D"/>
<path d="M31.4274 10.6382H31.8364C31.7549 10.595 31.6645 10.5684 31.5712 10.5602C31.4463 10.5586 31.4274 10.6382 31.4274 10.6382Z" fill="#C9236D"/>
<path d="M31.4459 10.6385C32.131 10.6385 32.6864 10.0104 32.6864 9.23558C32.6864 8.46078 32.131 7.83267 31.4459 7.83267C30.7608 7.83267 30.2054 8.46078 30.2054 9.23558C30.2054 10.0104 30.7608 10.6385 31.4459 10.6385Z" fill="#C9236D"/>
<path d="M31.4255 7.82632H31.7985L31.4871 7.87728L31.4255 7.82632Z" fill="#C9236D"/>
<path d="M31.8167 10.6385C32.5019 10.6385 33.0572 10.0104 33.0572 9.23558C33.0572 8.46078 32.5019 7.83267 31.8167 7.83267C31.1316 7.83267 30.5763 8.46078 30.5763 9.23558C30.5763 10.0104 31.1316 10.6385 31.8167 10.6385Z" fill="#FF5AA1"/>
<path d="M31.0434 9.60956L31.1597 9.14618C31.1597 9.14618 31.7979 9.43759 31.7979 9.41848C31.7979 9.39937 32.1179 8.22895 32.1179 8.22895L32.5919 8.46303L32.0786 10.0634L31.0434 9.60956Z" fill="white"/>
<path d="M32.8142 14.7847H33.2231C33.1416 14.7415 33.0512 14.7149 32.9579 14.7067C32.8244 14.7051 32.8142 14.7847 32.8142 14.7847Z" fill="#C9236D"/>
<path d="M32.8331 14.785C33.5182 14.785 34.0736 14.1569 34.0736 13.3821C34.0736 12.6073 33.5182 11.9792 32.8331 11.9792C32.148 11.9792 31.5926 12.6073 31.5926 13.3821C31.5926 14.1569 32.148 14.785 32.8331 14.785Z" fill="#C9236D"/>
<path d="M32.8107 11.9777H33.182L32.8706 12.0286L32.8107 11.9777Z" fill="#C9236D"/>
<path d="M33.2044 14.785C33.8896 14.785 34.4449 14.1569 34.4449 13.3821C34.4449 12.6073 33.8896 11.9792 33.2044 11.9792C32.5193 11.9792 31.964 12.6073 31.964 13.3821C31.964 14.1569 32.5193 14.785 33.2044 14.785Z" fill="#FF5AA1"/>
<path d="M32.4306 13.7562L32.5469 13.2928C32.5469 13.2928 33.1903 13.5842 33.1903 13.5698C33.1903 13.5555 33.5085 12.3803 33.5085 12.3803L33.9756 12.6048L33.4623 14.2052L32.4306 13.7562Z" fill="white"/>
<path d="M34.5029 18.7069H34.9118C34.8303 18.6637 34.7399 18.6371 34.6466 18.6289C34.5217 18.6273 34.5029 18.7069 34.5029 18.7069Z" fill="#C9236D"/>
<path d="M34.5218 18.7072C35.2069 18.7072 35.7623 18.0791 35.7623 17.3043C35.7623 16.5295 35.2069 15.9014 34.5218 15.9014C33.8367 15.9014 33.2813 16.5295 33.2813 17.3043C33.2813 18.0791 33.8367 18.7072 34.5218 18.7072Z" fill="#C9236D"/>
<path d="M34.4994 15.8994H34.8776L34.5662 15.9504L34.4994 15.8994Z" fill="#C9236D"/>
<path d="M34.8931 18.7072C35.5782 18.7072 36.1336 18.0791 36.1336 17.3043C36.1336 16.5295 35.5782 15.9014 34.8931 15.9014C34.208 15.9014 33.6526 16.5295 33.6526 17.3043C33.6526 18.0791 34.208 18.7072 34.8931 18.7072Z" fill="#FF5AA1"/>
<path d="M34.1198 17.6784L34.2361 17.215C34.2361 17.215 34.8795 17.5064 34.8795 17.492C34.8795 17.4777 35.1994 16.3025 35.1994 16.3025L35.6665 16.527L35.1532 18.1274L34.1198 17.6784Z" fill="white"/>
<path d="M18.3566 15.6465L27.4832 10.6925C27.5539 10.6545 27.634 10.6345 27.7157 10.6345C27.7973 10.6344 27.8775 10.6543 27.9482 10.6923C28.0189 10.7302 28.0777 10.7847 28.1186 10.8504C28.1595 10.9162 28.1811 10.9907 28.1813 11.0667C28.1813 11.1424 28.16 11.2168 28.1194 11.2825C28.0789 11.3481 28.0206 11.4028 27.9503 11.4409L18.8237 16.3869C18.753 16.4249 18.6728 16.4449 18.5912 16.445C18.5096 16.445 18.4294 16.4251 18.3587 16.3872C18.288 16.3492 18.2292 16.2947 18.1883 16.229C18.1474 16.1632 18.1257 16.0887 18.1256 16.0127C18.127 15.9383 18.1491 15.8656 18.1895 15.8014C18.23 15.7373 18.2875 15.6839 18.3566 15.6465Z" fill="white"/>
<path d="M19.3778 19.7152L28.5044 14.7676C28.5751 14.7296 28.6553 14.7096 28.7369 14.7096C28.8185 14.7096 28.8987 14.7295 28.9694 14.7674C29.0401 14.8053 29.0989 14.8599 29.1398 14.9256C29.1807 14.9913 29.2024 15.0659 29.2025 15.1418C29.2025 15.2176 29.1812 15.292 29.1407 15.3576C29.1001 15.4233 29.0418 15.4779 28.9715 15.5161L19.8449 20.4621C19.7742 20.5 19.6941 20.5201 19.6124 20.5201C19.5308 20.5201 19.4506 20.5002 19.3799 20.4623C19.3092 20.4244 19.2504 20.3698 19.2095 20.3041C19.1686 20.2384 19.147 20.1638 19.1468 20.0879C19.1471 20.0124 19.1686 19.9383 19.2091 19.873C19.2496 19.8076 19.3078 19.7532 19.3778 19.7152Z" fill="white"/>
<path d="M20.8095 23.7151L29.9361 18.7675C30.0068 18.7295 30.0869 18.7095 30.1686 18.7095C30.2502 18.7094 30.3304 18.7294 30.4011 18.7673C30.4718 18.8052 30.5306 18.8598 30.5715 18.9255C30.6124 18.9912 30.634 19.0658 30.6342 19.1417C30.6342 19.2175 30.6129 19.2919 30.5724 19.3575C30.5318 19.4232 30.4735 19.4778 30.4032 19.5159L21.2766 24.462C21.2059 24.4999 21.1257 24.52 21.0441 24.52C20.9625 24.52 20.8823 24.5001 20.8116 24.4622C20.7409 24.4243 20.6821 24.3697 20.6412 24.304C20.6003 24.2383 20.5786 24.1637 20.5785 24.0877C20.5788 24.0123 20.6002 23.9382 20.6408 23.8729C20.6813 23.8075 20.7394 23.7531 20.8095 23.7151Z" fill="white"/>
<path opacity="0.46" d="M24.6644 35.139L30.4562 32.0705L36.2463 35.1454C36.2463 35.1454 33.2298 36.8588 30.3467 38.4321C28.5176 37.2267 26.6851 36.0117 24.6644 35.139Z" fill="url(#paint0_linear_270_374)"/>
<path d="M29.5372 13.7182C30.3416 14.3625 30.9499 15.1923 31.3013 16.1243C31.9207 17.7167 30.3722 20.3187 30.3722 20.3187L27.9631 18.5464" fill="#FF8F6F"/>
<path d="M29.8028 34.7775L30.4564 34.4415L30.2853 33.572C30.2853 33.572 29.3117 33.658 29.2262 33.9797" fill="#003B94"/>
<path d="M29.5567 34.7646C29.4095 34.6802 29.2555 34.6054 29.1032 34.5305C28.7251 34.3379 28.1793 34.1388 27.9466 33.7773C27.8989 33.7042 27.8763 33.6193 27.8818 33.534C27.8873 33.4486 27.9206 33.3669 27.9774 33.2996C28.3196 32.9142 29.069 33.548 29.4523 33.1213C29.5276 33.0369 29.5635 31.6976 29.5635 31.6976L31.0213 32.0639C31.0213 32.0639 31.2677 34.7551 31.2403 34.9207C31.2129 35.0863 30.7116 35.2392 30.7116 35.2392C30.5623 35.2096 30.4198 35.1557 30.2907 35.0799C30.1384 34.9764 30.277 33.7136 30.0819 33.8904C29.8869 34.0671 29.8013 34.7583 29.8013 34.7583C29.7204 34.7697 29.6382 34.7718 29.5567 34.7646Z" fill="#68E1FD"/>
<path d="M27.0074 36.0787L27.661 35.7427L27.4899 34.8732C27.4899 34.8732 26.5163 34.9592 26.4308 35.2809" fill="#003B94"/>
<path d="M26.7676 36.0658C26.6204 35.9814 26.4664 35.9066 26.3142 35.8318C25.936 35.6391 25.3902 35.44 25.1575 35.0785C25.1098 35.0054 25.0872 34.9206 25.0927 34.8352C25.0982 34.7499 25.1316 34.6681 25.1883 34.6008C25.5305 34.2155 26.2799 34.8492 26.6632 34.4225C26.7385 34.3381 26.7744 32.9989 26.7744 32.9989L28.2322 33.3651C28.2322 33.3651 28.4786 36.0563 28.4512 36.2219C28.4239 36.3875 27.9225 36.5404 27.9225 36.5404C27.7732 36.5109 27.6307 36.4569 27.5016 36.3811C27.3493 36.2776 27.4879 35.0148 27.2929 35.1916C27.0978 35.3684 27.0123 36.0595 27.0123 36.0595C26.9313 36.0709 26.8491 36.073 26.7676 36.0658Z" fill="#68E1FD"/>
<path d="M31.7639 27.3298L32.1848 32.6676C32.1848 32.6676 31.5004 33.5466 29.2059 33.0577L29.1837 29.4541" fill="#3E2928"/>
<path d="M29.1052 28.3887C29.1548 28.8489 29.1052 33.9255 29.1052 33.9255C29.1052 33.9255 28.4704 35.0306 25.7071 33.9255L25.7465 29.6116" fill="#3E2928"/>
<path d="M31.9692 29.0956C31.781 29.2167 31.716 28.594 31.5192 28.7007C30.8034 29.0877 30.0436 29.3996 29.2538 29.6307H29.2367C29.2179 29.6222 29.1974 29.6173 29.1766 29.6163C29.1557 29.6153 29.1348 29.6182 29.1151 29.6249C29.0955 29.6316 29.0775 29.6419 29.0622 29.6552C29.047 29.6685 29.0347 29.6845 29.0263 29.7023C28.5384 29.8378 28.0418 29.9442 27.5394 30.0208C26.8943 30.1164 26.3605 29.6721 25.6983 29.6418C25.6983 27.2819 25.6863 20.5651 26.766 19.1319L29.9571 18.1383C29.9725 18.3835 31.5073 20.0396 31.4696 22.0588C31.4268 24.3343 31.7451 26.4809 31.7998 27.1927C31.8204 27.3121 31.9692 28.9667 31.9692 29.0956Z" fill="#3E2928"/>
<path d="M26.4801 16.4251L26.7744 19.1322C26.7744 19.1322 29.1579 19.2214 30.1845 18.5621V16.2659" fill="#FF8F6F"/>
<path d="M23.4485 14.6368L23.6915 14.9458C23.562 14.6945 23.4477 14.4367 23.3493 14.1734C23.2809 13.9935 23.5905 13.9218 23.659 14.1018L23.6949 14.1941C23.6653 14.0986 23.6373 14.0025 23.6111 13.9059C23.6009 13.8677 23.6074 13.8273 23.6292 13.7935C23.651 13.7598 23.6864 13.7355 23.7274 13.726C23.7685 13.7165 23.8119 13.7225 23.8482 13.7429C23.8845 13.7632 23.9106 13.796 23.9208 13.8343C23.9879 14.0841 24.0684 14.3307 24.162 14.5731C24.1098 14.3579 24.072 14.1399 24.0491 13.9203C24.0286 13.7308 24.3485 13.7387 24.3674 13.9203C24.3939 14.1703 24.442 14.4179 24.5111 14.6607C24.5111 14.5758 24.5196 14.4909 24.5367 14.4059C24.5391 14.3848 24.5462 14.3643 24.5577 14.3459C24.5693 14.3275 24.5848 14.3116 24.6035 14.2992C24.612 14.2658 24.6223 14.234 24.6343 14.2005C24.6464 14.1672 24.6708 14.1389 24.7031 14.1207C24.7354 14.1024 24.7736 14.0953 24.8109 14.1006C24.8483 14.1059 24.8825 14.1233 24.9074 14.1497C24.9324 14.1762 24.9465 14.2099 24.9474 14.2451L24.9679 15.3598C25.0259 15.4754 25.1014 15.5826 25.1921 15.6783C25.0381 15.7774 24.8896 15.8837 24.7472 15.9968C24.6202 16.0967 24.4991 16.203 24.3845 16.3152C24.2818 16.1963 24.1831 16.0753 24.0885 15.9522C24.0767 15.9429 24.0663 15.9322 24.0577 15.9203C23.7725 15.5275 23.4782 15.1411 23.1748 14.761C23.0499 14.6305 23.3288 14.4856 23.4485 14.6368Z" fill="#FFB5A9"/>
<path d="M27.9924 13.9508C27.9924 13.9508 26.8666 14.2326 26.4097 14.9062C26.1237 15.3724 25.8716 15.856 25.6552 16.3537L24.8253 15.1514C24.8253 15.1514 23.8158 15.4397 23.4154 15.9015C23.4154 15.9015 24.6132 18.3378 25.6569 18.5464C26.7006 18.7551 27.8077 17.1037 27.8077 17.1037C27.8077 17.1037 28.0369 17.7885 27.9924 17.0575" fill="#FF8F6F"/>
<path d="M27.2759 16.5543C27.6031 16.3065 27.8501 15.9791 27.9894 15.6084C28.1246 15.1801 27.9552 14.8043 27.7977 14.4062C27.6273 14.0116 27.5279 13.5935 27.5034 13.1689C27.4898 12.7517 27.5411 12.3344 27.5719 11.9188C27.5763 11.901 27.5763 11.8825 27.5719 11.8647C27.7225 11.3949 28.0304 10.9968 28.6379 10.949C30.2103 10.8248 30.2993 12.4459 30.2873 13.1052C30.2753 13.7644 30.2 14.2103 30.7219 14.4858C31.2438 14.7613 31.6202 15.4842 31.1223 16.0686C30.6244 16.653 31.0709 16.4397 31.4029 16.9588C31.7348 17.4779 31.6493 18.126 30.9683 18.3601C30.2873 18.5942 27.1219 18.1547 26.831 17.8824C26.7278 17.7727 26.6744 17.6299 26.6822 17.4843C26.7531 17.1178 26.964 16.7876 27.2759 16.5543Z" fill="#007F68"/>
<path opacity="0.46" d="M48.5341 25.4733C51.6733 25.4733 54.2181 24.714 54.2181 23.7774C54.2181 22.8408 51.6733 22.0815 48.5341 22.0815C45.3949 22.0815 42.85 22.8408 42.85 23.7774C42.85 24.714 45.3949 25.4733 48.5341 25.4733Z" fill="url(#paint1_linear_270_374)"/>
<path d="M47.1575 6.84854L46.492 6.81829C46.4465 6.8207 46.4021 6.83153 46.3612 6.85013C46.3203 6.86873 46.2838 6.89473 46.2539 6.92661C46.2239 6.95849 46.2011 6.99561 46.1868 7.03579C46.1724 7.07598 46.1668 7.11843 46.1703 7.16065C46.179 7.24413 46.2218 7.3213 46.29 7.37615C46.3582 7.431 46.4464 7.45932 46.5365 7.45525L47.202 7.4855C47.2469 7.48248 47.2906 7.47126 47.3308 7.4525C47.371 7.43373 47.4068 7.40779 47.4362 7.37614C47.4656 7.3445 47.488 7.30777 47.5021 7.26807C47.5162 7.22836 47.5218 7.18645 47.5186 7.14473C47.5103 7.06182 47.4684 6.98498 47.4013 6.92992C47.3341 6.87486 47.247 6.84575 47.1575 6.84854Z" fill="#A90F0D"/>
<path d="M47.5066 5.69872L46.9386 5.06175C46.9068 5.03214 46.869 5.00865 46.8275 4.99262C46.786 4.9766 46.7414 4.96835 46.6965 4.96835C46.6515 4.96835 46.607 4.9766 46.5654 4.99262C46.5239 5.00865 46.4861 5.03214 46.4543 5.06175C46.4225 5.09133 46.3973 5.12646 46.3801 5.16512C46.3628 5.20378 46.354 5.24523 46.354 5.28708C46.354 5.32893 46.3628 5.37038 46.3801 5.40904C46.3973 5.4477 46.4225 5.48283 46.4543 5.51241L47.0224 6.14937C47.0542 6.17898 47.0919 6.20247 47.1335 6.2185C47.175 6.23452 47.2195 6.24277 47.2645 6.24277C47.3095 6.24277 47.354 6.23452 47.3956 6.2185C47.4371 6.20247 47.4748 6.17898 47.5066 6.14937C47.5384 6.11979 47.5637 6.08467 47.5809 6.046C47.5981 6.00734 47.607 5.9659 47.607 5.92404C47.607 5.88219 47.5981 5.84075 47.5809 5.80208C47.5637 5.76342 47.5384 5.7283 47.5066 5.69872Z" fill="#A90F0D"/>
<path d="M48.7593 4.96787C48.7146 4.96322 48.6694 4.96683 48.6261 4.97849C48.5829 4.99015 48.5426 5.00962 48.5075 5.0358C48.4723 5.06198 48.4431 5.09436 48.4214 5.13106C48.3998 5.16777 48.3861 5.2081 48.3812 5.24973L48.2803 5.88669C48.2753 5.92851 48.2793 5.97083 48.2919 6.01123C48.3045 6.05163 48.3256 6.08932 48.3539 6.12215C48.3822 6.15498 48.4171 6.1823 48.4567 6.20255C48.4964 6.22281 48.5399 6.2356 48.5848 6.2402C48.6298 6.2448 48.6752 6.24112 48.7186 6.22937C48.7621 6.21761 48.8026 6.19802 48.8378 6.17169C48.8731 6.14537 48.9025 6.11285 48.9242 6.07597C48.946 6.03909 48.9597 5.99858 48.9647 5.95676L49.0656 5.31979C49.0706 5.27793 49.0666 5.23556 49.0539 5.19515C49.0411 5.15473 49.0199 5.11707 48.9914 5.08434C48.9629 5.05161 48.9277 5.02446 48.8879 5.00447C48.8481 4.98448 48.8044 4.97204 48.7593 4.96787Z" fill="#A90F0D"/>
<path d="M48.5337 20.1752C49.5713 20.1752 50.4124 19.3924 50.4124 18.4267C50.4124 17.4611 49.5713 16.6783 48.5337 16.6783C47.4961 16.6783 46.655 17.4611 46.655 18.4267C46.655 19.3924 47.4961 20.1752 48.5337 20.1752Z" fill="#A90F0D"/>
<path d="M51.6456 7.32453C51.6456 7.32453 48.8977 6.36909 47.2449 9.05389C45.592 11.7387 45.9547 11.976 44.0469 13.3295C42.1391 14.683 43.1452 18.0446 48.4392 19.2485C53.7331 20.4523 55.2251 18.1035 55.0831 16.6178C54.9411 15.1321 54.0086 15.0254 54.4894 11.5683C54.9702 8.11118 51.6456 7.32453 51.6456 7.32453Z" fill="#68E1FD"/>
<path opacity="0.3" d="M44.7712 17.5015C44.5112 17.0461 44.3486 16.5079 44.5248 16.0015C44.6959 15.5238 45.11 15.1702 45.5361 14.8868C46.1024 14.5078 46.768 14.2498 47.283 13.8071C47.9247 13.2594 48.1693 12.5332 48.2874 11.7482C48.3918 11.0698 48.4328 10.3803 48.6844 9.72899C48.8662 9.28219 49.1321 8.86913 49.4697 8.50921C49.8513 8.08563 50.5203 7.38497 51.215 7.21618C50.3783 7.07127 48.4961 7.01394 47.242 9.04744C45.5891 11.7275 45.9518 11.9695 44.044 13.3231C42.6752 14.2992 42.8087 16.3232 44.9868 17.8264C44.9078 17.7224 44.8358 17.6139 44.7712 17.5015Z" fill="#606060"/>
<path d="M46.3418 10.6017C46.3418 10.6017 46.7884 12.5238 49.8306 13.0715C52.8728 13.6193 54.2022 12.6639 54.4315 12.0062L54.3956 14.1385C54.3956 14.1385 53.3022 16.3423 49.4097 15.5477C45.5171 14.7531 45.4127 12.984 45.322 12.2483L46.3418 10.6017Z" fill="#3E2928"/>
<path d="M52.8897 7.08596C53.0809 6.4098 52.6469 5.71745 51.9203 5.53955C51.1938 5.36166 50.4499 5.76559 50.2587 6.44175C50.0676 7.11792 50.5016 7.81026 51.2281 7.98815C51.9547 8.16605 52.6986 7.76212 52.8897 7.08596Z" fill="#68E1FD"/>
<defs>
<linearGradient id="paint0_linear_270_374" x1="26.7279" y1="31.3364" x2="32.3167" y2="37.9231" gradientUnits="userSpaceOnUse">
<stop stop-color="#78B46A"/>
<stop offset="0.03" stop-color="#7F3500"/>
<stop offset="1" stop-color="white"/>
</linearGradient>
<linearGradient id="paint1_linear_270_374" x1="329.875" y1="21.8665" x2="321.96" y2="25.3711" gradientUnits="userSpaceOnUse">
<stop stop-color="#78B46A"/>
<stop offset="0.03" stop-color="#7F3500"/>
<stop offset="1" stop-color="white"/>
</linearGradient>
</defs>
</svg>
