<svg width="23" height="17" viewBox="0 0 23 17" fill="none" xmlns="http://www.w3.org/2000/svg">
<path d="M21.3034 6.3878e-05H1.69673C1.25187 -0.0032565 0.823381 0.122987 0.505285 0.351092C0.187189 0.579198 0.00546937 0.890534 0 1.21679V15.6543C0.00645849 15.9801 0.188613 16.2907 0.506601 16.5182C0.824589 16.7457 1.25252 16.8716 1.69673 16.8683H21.3034C21.7483 16.8708 22.1765 16.7442 22.4944 16.5159C22.8124 16.2877 22.9942 15.9764 23.0002 15.6502V1.21264C22.9922 0.887343 22.8095 0.577491 22.4918 0.350433C22.1741 0.123374 21.747 -0.00253848 21.3034 6.3878e-05Z" fill="#F5F5F5"/>
<path d="M3.40516 6.32359H6.81936V14.3802H3.40516V6.32359ZM5.1132 2.31394C5.5048 2.31394 5.88759 2.39912 6.21316 2.5587C6.53873 2.71828 6.79245 2.9451 6.94222 3.21046C7.09199 3.47581 7.13108 3.76779 7.05455 4.04944C6.97802 4.33109 6.7893 4.58977 6.51227 4.79275C6.23524 4.99573 5.88235 5.13389 5.49823 5.18975C5.11412 5.24561 4.71604 5.21666 4.35437 5.10657C3.99269 4.99648 3.68366 4.81018 3.46637 4.57126C3.24909 4.33234 3.13331 4.05152 3.13368 3.76432C3.13418 3.37953 3.34296 3.01062 3.71414 2.73866C4.08531 2.4667 4.58853 2.31394 5.1132 2.31394Z" fill="#0E737F"/>
<path d="M8.96117 6.32347H12.234V7.42958H12.2792C12.7355 6.79633 13.8478 6.12852 15.5087 6.12852C18.9662 6.12299 19.6072 7.79184 19.6072 9.95566V14.3801H16.193V10.4603C16.193 9.52705 16.1704 8.32553 14.419 8.32553C12.6676 8.32553 12.3697 9.34316 12.3697 10.3995V14.3801H8.96117V6.32347Z" fill="#0E737F"/>
</svg>
