<svg width="16" height="13" viewBox="0 0 16 13" fill="none" xmlns="http://www.w3.org/2000/svg">
<path d="M4.50932 12.7427C5.82284 12.7821 7.13184 12.585 8.35896 12.163C9.58608 11.741 10.7064 11.1028 11.6538 10.2859C12.6011 9.46904 13.3563 8.49017 13.8746 7.40714C14.3929 6.32411 14.6638 5.1589 14.6714 3.98037C15.2734 3.31238 15.7203 2.54322 15.9861 1.71811C16.0059 1.65291 16.0043 1.58397 15.9815 1.51958C15.9586 1.45519 15.9155 1.39809 15.8573 1.35516C15.7991 1.31223 15.7283 1.2853 15.6535 1.27762C15.5786 1.26994 15.5029 1.28183 15.4353 1.31185C15.1204 1.44779 14.7659 1.4917 14.4217 1.4374C14.0774 1.38309 13.7609 1.23331 13.5166 1.00916C13.2048 0.702935 12.8276 0.455959 12.4074 0.282861C11.9871 0.109763 11.5324 0.0140652 11.0702 0.00143714C10.608 -0.0111909 10.1477 0.0595082 9.71645 0.209345C9.28526 0.359182 8.89199 0.585108 8.55994 0.873738C8.10531 1.26857 7.77231 1.76215 7.59331 2.30651C7.41431 2.85088 7.3954 3.42751 7.53841 3.98037C4.56262 4.13969 2.51954 2.87314 0.885078 1.13661C0.835976 1.08674 0.771744 1.05078 0.700227 1.03311C0.628709 1.01544 0.553001 1.01682 0.482348 1.0371C0.411694 1.05737 0.349154 1.09566 0.302362 1.14728C0.255571 1.1989 0.226555 1.26162 0.218857 1.32778C-0.092517 2.87666 0.132097 4.47389 0.862532 5.90495C1.59297 7.33601 2.79424 8.53237 4.30501 9.33335C3.29203 10.3751 1.86949 11.0258 0.334336 11.1495C0.25209 11.1618 0.176168 11.1968 0.117193 11.2496C0.058219 11.3024 0.0191449 11.3705 0.00543916 11.4442C-0.00826654 11.518 0.00408232 11.5937 0.0407574 11.6609C0.0774326 11.728 0.136598 11.7832 0.209974 11.8187C1.54554 12.4172 3.0163 12.7333 4.50932 12.7427Z" fill="#F5F5F5"/>
</svg>
