<svg width="53" height="33" viewBox="0 0 53 33" fill="none" xmlns="http://www.w3.org/2000/svg">
<path d="M7.95003 13.8829C10.8733 13.8829 13.2501 11.8077 13.2501 9.25528C13.2501 6.70284 10.8733 4.62764 7.95003 4.62764C5.02674 4.62764 2.65001 6.70284 2.65001 9.25528C2.65001 11.8077 5.02674 13.8829 7.95003 13.8829ZM45.0502 13.8829C47.9735 13.8829 50.3502 11.8077 50.3502 9.25528C50.3502 6.70284 47.9735 4.62764 45.0502 4.62764C42.1269 4.62764 39.7502 6.70284 39.7502 9.25528C39.7502 11.8077 42.1269 13.8829 45.0502 13.8829ZM47.7002 16.1967H42.4002C40.9427 16.1967 39.6259 16.7101 38.6653 17.5416C42.0027 19.1396 44.3711 22.0247 44.8846 25.452H50.3502C51.816 25.452 53.0002 24.418 53.0002 23.1382V20.8244C53.0002 18.2719 50.6235 16.1967 47.7002 16.1967ZM26.5001 16.1967C31.6262 16.1967 35.7751 12.5742 35.7751 8.09837C35.7751 3.62257 31.6262 0 26.5001 0C21.374 0 17.2251 3.62257 17.2251 8.09837C17.2251 12.5742 21.374 16.1967 26.5001 16.1967ZM32.8601 18.5106H32.1728C30.4503 19.2336 28.5373 19.6675 26.5001 19.6675C24.4629 19.6675 22.5582 19.2336 20.8274 18.5106H20.1401C14.8732 18.5106 10.6 22.2416 10.6 26.8403V28.9227C10.6 30.8389 12.3805 32.3935 14.5751 32.3935H38.4252C40.6197 32.3935 42.4002 30.8389 42.4002 28.9227V26.8403C42.4002 22.2416 38.127 18.5106 32.8601 18.5106ZM14.3349 17.5416C13.3743 16.7101 12.0575 16.1967 10.6 16.1967H5.30002C2.37673 16.1967 0 18.2719 0 20.8244V23.1382C0 24.418 1.18422 25.452 2.65001 25.452H8.10738C8.6291 22.0247 10.9975 19.1396 14.3349 17.5416Z" fill="#2B46A6"/>
</svg>
