<svg width="32" height="29" viewBox="0 0 32 29" fill="none" xmlns="http://www.w3.org/2000/svg">
<path d="M13.9844 7.40576L9.66373 0.880195C9.48608 0.611753 9.23474 0.389585 8.93419 0.235333C8.63364 0.0810806 8.29413 3.84321e-06 7.94873 0H1.00183C0.192455 0 -0.281296 0.825254 0.182455 1.42621L7.13685 10.4298C8.99436 8.85689 11.3569 7.77732 13.9844 7.40576ZM30.9982 0H24.0513C23.3488 0 22.6975 0.33418 22.3363 0.880195L18.0156 7.40576C20.6431 7.77732 23.0056 8.85689 24.8631 10.4292L31.8175 1.42621C32.2813 0.825254 31.8075 0 30.9982 0ZM16 9.0625C9.92498 9.0625 4.99997 13.5258 4.99997 19.0312C4.99997 24.5367 9.92498 29 16 29C22.075 29 27 24.5367 27 19.0312C27 13.5258 22.075 9.0625 16 9.0625ZM21.7825 17.9698L19.4119 20.0632L19.9725 23.021C20.0725 23.5512 19.4563 23.9562 18.9319 23.7058L16 22.3096L13.0687 23.7058C12.5437 23.9579 11.9281 23.5506 12.0281 23.021L12.5887 20.0632L10.2181 17.9698C9.79186 17.5937 10.0275 16.9372 10.615 16.8602L13.8919 16.4275L15.3562 13.7359C15.4881 13.4935 15.7431 13.374 15.9988 13.374C16.2556 13.374 16.5125 13.4952 16.6444 13.7359L18.1088 16.4275L21.3856 16.8602C21.9731 16.9372 22.2088 17.5937 21.7825 17.9698Z" fill="#105731"/>
</svg>
