<svg width="79" height="24" viewBox="0 0 79 24" fill="none" xmlns="http://www.w3.org/2000/svg">
<path d="M9.74783 6.13885C8.98197 4.89459 8.03591 4.27246 6.90964 4.27246C6.41408 4.27246 5.95231 4.39239 5.52433 4.63224C5.10762 4.8721 4.74721 5.20191 4.44312 5.62166C4.13903 6.02641 3.89688 6.51363 3.71668 7.08329C3.54774 7.65295 3.46327 8.26758 3.46327 8.92719C3.46327 9.60179 3.54774 10.2239 3.71668 10.7936C3.89688 11.3632 4.13903 11.8579 4.44312 12.2777C4.75847 12.6974 5.12451 13.0273 5.54123 13.2671C5.95795 13.507 6.40845 13.6269 6.89275 13.6269C7.95144 13.6269 8.90313 13.0273 9.74783 11.828V17.0449L9.40995 17.2023C8.90313 17.4421 8.4301 17.6145 7.99085 17.7195C7.55161 17.8394 7.118 17.8994 6.69002 17.8994C5.81153 17.8994 4.96683 17.682 4.15592 17.2472C3.35627 16.7975 2.64672 16.1754 2.02728 15.3809C1.41909 14.5713 0.929169 13.6194 0.557501 12.525C0.185834 11.4157 0 10.2089 0 8.9047C0 7.60048 0.180203 6.40869 0.540608 5.32933C0.912275 4.23498 1.4022 3.29804 2.01038 2.5185C2.62983 1.72397 3.34501 1.10934 4.15592 0.674598C4.96683 0.224866 5.81716 0 6.70691 0C7.21373 0 7.70929 0.0749553 8.19358 0.224866C8.68914 0.359786 9.20722 0.577156 9.74783 0.876978V6.13885Z" fill="#105731"/>
<path d="M14.4442 11.6031C14.4442 11.9929 14.4949 12.3527 14.5963 12.6825C14.7089 12.9973 14.8497 13.2746 15.0186 13.5145C15.1988 13.7543 15.4072 13.9417 15.6437 14.0766C15.8915 14.2115 16.1505 14.279 16.4208 14.279C16.6911 14.279 16.9445 14.2115 17.181 14.0766C17.4288 13.9417 17.6372 13.7543 17.8061 13.5145C17.9863 13.2746 18.1271 12.9973 18.2285 12.6825C18.3411 12.3527 18.3974 12.0004 18.3974 11.6256C18.3974 11.2658 18.3411 10.9285 18.2285 10.6137C18.1271 10.2839 17.9863 9.99905 17.8061 9.75919C17.6372 9.51934 17.4288 9.33195 17.181 9.19703C16.9445 9.06211 16.6911 8.99465 16.4208 8.99465C16.1505 8.99465 15.8915 9.06211 15.6437 9.19703C15.4072 9.33195 15.1988 9.51934 15.0186 9.75919C14.8497 9.99905 14.7089 10.2764 14.5963 10.5912C14.4949 10.906 14.4442 11.2433 14.4442 11.6031ZM11.2175 11.5581C11.2175 10.7036 11.347 9.90911 11.606 9.17454C11.8651 8.42499 12.2255 7.78037 12.6873 7.24069C13.149 6.68602 13.6953 6.25128 14.326 5.93647C14.9679 5.62166 15.6662 5.46425 16.4208 5.46425C17.1642 5.46425 17.8512 5.62166 18.4819 5.93647C19.1239 6.23629 19.6757 6.66354 20.1375 7.21821C20.6105 7.75788 20.9766 8.41 21.2356 9.17454C21.4946 9.9241 21.6242 10.7561 21.6242 11.6706C21.6242 12.585 21.489 13.4245 21.2187 14.1891C20.9597 14.9386 20.5993 15.5907 20.1375 16.1454C19.6757 16.6851 19.1182 17.1048 18.465 17.4046C17.823 17.7045 17.1247 17.8544 16.3701 17.8544C15.6268 17.8544 14.9398 17.7045 14.3091 17.4046C13.6784 17.1048 13.1321 16.6776 12.6704 16.1229C12.2199 15.5682 11.8651 14.9086 11.606 14.1441C11.347 13.3645 11.2175 12.5026 11.2175 11.5581Z" fill="#105731"/>
<path d="M23.3844 5.8915H26.4423V7.30815C27.2757 6.24379 28.2105 5.7116 29.2467 5.7116C30.5306 5.7116 31.5105 6.43117 32.1862 7.87032C32.8732 6.41618 33.8531 5.68912 35.1258 5.68912C35.5312 5.68912 35.9141 5.77157 36.2746 5.93647C36.635 6.08638 36.9447 6.33373 37.2037 6.67853C37.4628 7.00833 37.6655 7.44307 37.8119 7.98275C37.9696 8.52243 38.0484 9.17454 38.0484 9.93909V17.4271H34.9906V11.738C34.9906 11.1534 34.9568 10.6736 34.8892 10.2989C34.8329 9.9241 34.7428 9.63177 34.6189 9.4219C34.5063 9.21202 34.3712 9.0696 34.2135 8.99465C34.0558 8.91969 33.8869 8.88222 33.7067 8.88222C32.7268 8.88222 32.2369 9.83415 32.2369 11.738V17.4271H29.1791V11.738C29.1791 11.1534 29.1509 10.6736 29.0946 10.2989C29.0383 9.9091 28.9538 9.60179 28.8412 9.37692C28.7398 9.15206 28.6047 9.00214 28.4357 8.92719C28.2668 8.83724 28.0697 8.79227 27.8445 8.79227C27.653 8.79227 27.4728 8.82975 27.3038 8.9047C27.1349 8.97966 26.9829 9.12957 26.8477 9.35443C26.7238 9.56431 26.6225 9.86413 26.5436 10.2539C26.476 10.6287 26.4423 11.1234 26.4423 11.738V17.4271H23.3844V5.8915Z" fill="#105731"/>
<path d="M47.353 11.693C47.353 11.3333 47.3024 10.996 47.201 10.6811C47.1109 10.3513 46.9758 10.0665 46.7956 9.82665C46.6153 9.5868 46.4014 9.39941 46.1536 9.26449C45.9171 9.11458 45.658 9.03962 45.3765 9.03962C45.1061 9.03962 44.8527 9.10708 44.6162 9.242C44.3797 9.37692 44.1713 9.56431 43.9911 9.80417C43.8222 10.044 43.6814 10.3289 43.5688 10.6587C43.4674 10.9735 43.4168 11.3108 43.4168 11.6706C43.4168 12.0303 43.4674 12.3676 43.5688 12.6825C43.6702 12.9973 43.8109 13.2746 43.9911 13.5145C44.1713 13.7393 44.3797 13.9267 44.6162 14.0766C44.864 14.2115 45.123 14.279 45.3933 14.279C45.6636 14.279 45.9171 14.2115 46.1536 14.0766C46.3901 13.9417 46.5928 13.7543 46.7618 13.5145C46.942 13.2746 47.0827 12.9973 47.1841 12.6825C47.2967 12.3676 47.353 12.0378 47.353 11.693ZM43.5012 23.1837H40.4434V5.8915H43.5012V7.17323C44.1545 6.07888 45.0442 5.53171 46.1705 5.53171C46.7899 5.53171 47.3643 5.69661 47.8937 6.02641C48.4343 6.34123 48.9017 6.77597 49.2959 7.33064C49.6901 7.88531 49.9941 8.53742 50.2081 9.28698C50.4334 10.0365 50.546 10.8386 50.546 11.693C50.546 12.5475 50.4334 13.3421 50.2081 14.0766C49.9941 14.8112 49.6901 15.4558 49.2959 16.0105C48.9129 16.5651 48.4568 16.9999 47.9274 17.3147C47.3981 17.6295 46.8237 17.7869 46.2043 17.7869C45.123 17.7869 44.222 17.2922 43.5012 16.3028V23.1837Z" fill="#105731"/>
<path d="M58.6242 9.98406C58.5229 9.4144 58.3145 8.95717 57.9992 8.61238C57.6838 8.26758 57.3009 8.09518 56.8504 8.09518C56.3773 8.09518 55.9888 8.26009 55.6847 8.58989C55.3919 8.91969 55.206 9.38442 55.1272 9.98406H58.6242ZM55.0427 12.3452C55.0427 14.0991 55.6622 14.9761 56.9011 14.9761C57.5655 14.9761 58.0667 14.6163 58.4046 13.8967H61.3611C60.7641 16.5352 59.2718 17.8544 56.8842 17.8544C56.1521 17.8544 55.482 17.712 54.8738 17.4271C54.2656 17.1273 53.7419 16.7076 53.3026 16.1679C52.8747 15.6282 52.5424 14.9836 52.3059 14.234C52.0694 13.4845 51.9511 12.645 51.9511 11.7155C51.9511 10.7561 52.0637 9.89411 52.289 9.12957C52.5142 8.35003 52.8352 7.69043 53.252 7.15075C53.6687 6.61107 54.1699 6.19881 54.7555 5.91398C55.3524 5.61416 56.0226 5.46425 56.7659 5.46425C57.498 5.46425 58.1568 5.61416 58.7425 5.91398C59.3282 6.19881 59.8237 6.61856 60.2292 7.17323C60.6346 7.7279 60.9443 8.41 61.1583 9.21952C61.3723 10.014 61.4793 10.9135 61.4793 11.9179V12.3452H55.0427Z" fill="#105731"/>
<path d="M66.7553 9.28698V17.4271H63.6974V9.28698H62.6838V5.8915H63.6974V2.42855H66.7553V5.8915H68.4953V9.28698H66.7553Z" fill="#105731"/>
<path d="M76.1451 9.98406C76.0438 9.4144 75.8354 8.95717 75.5201 8.61238C75.2047 8.26758 74.8218 8.09518 74.3713 8.09518C73.8983 8.09518 73.5097 8.26009 73.2056 8.58989C72.9128 8.91969 72.7269 9.38442 72.6481 9.98406H76.1451ZM72.5636 12.3452C72.5636 14.0991 73.1831 14.9761 74.422 14.9761C75.0865 14.9761 75.5876 14.6163 75.9255 13.8967H78.882C78.2851 16.5352 76.7928 17.8544 74.4051 17.8544C73.673 17.8544 73.0029 17.712 72.3947 17.4271C71.7865 17.1273 71.2628 16.7076 70.8235 16.1679C70.3956 15.6282 70.0633 14.9836 69.8268 14.234C69.5903 13.4845 69.472 12.645 69.472 11.7155C69.472 10.7561 69.5846 9.89411 69.8099 9.12957C70.0352 8.35003 70.3561 7.69043 70.7729 7.15075C71.1896 6.61107 71.6908 6.19881 72.2764 5.91398C72.8733 5.61416 73.5435 5.46425 74.2868 5.46425C75.0189 5.46425 75.6777 5.61416 76.2634 5.91398C76.8491 6.19881 77.3446 6.61856 77.7501 7.17323C78.1555 7.7279 78.4653 8.41 78.6792 9.21952C78.8932 10.014 79.0002 10.9135 79.0002 11.9179V12.3452H72.5636Z" fill="#105731"/>
</svg>
