<svg width="38" height="32" viewBox="0 0 38 32" fill="none" xmlns="http://www.w3.org/2000/svg">
<path d="M10.3661 6.31428C9.52266 4.24212 6.47544 3.03268 3.52703 3.60471C3.47194 3.61436 3.36142 3.6339 3.26157 3.65735C-0.785034 4.60773 -1.10648 8.47681 2.52273 9.89072L10.5896 13.0356C11.2692 13.3006 12.125 13.1272 12.5011 12.6483C12.8772 12.1695 12.6309 11.5664 11.9513 11.3016L3.88355 8.15621C2.28964 7.5354 2.54816 5.9199 4.14195 5.53968L4.15193 5.53775C4.1698 5.53438 4.19128 5.53059 4.22596 5.52447C4.23846 5.52227 4.25091 5.51995 4.26333 5.5175C5.7236 5.23002 7.24147 5.82677 7.66224 6.86059C7.87634 7.38666 8.65519 7.69084 9.40185 7.53997C10.1486 7.38911 10.5802 6.84034 10.3661 6.31428Z" fill="#D3883E"/>
<path d="M29.7468 6.86059C30.1675 5.82677 31.6855 5.23002 33.1458 5.5175C33.1581 5.51995 33.1706 5.52227 33.1831 5.52447C33.2178 5.53059 33.2393 5.53438 33.2571 5.53775L33.2672 5.53968C34.8608 5.9199 35.1189 7.53558 33.5249 8.1564L25.4577 11.3016C24.778 11.5664 24.5319 12.1695 24.908 12.6483C25.2841 13.1272 26.1399 13.3006 26.8195 13.0356L34.8868 9.89049C38.5161 8.47662 38.1941 4.60773 34.1474 3.65735C34.0476 3.6339 33.9371 3.61436 33.882 3.60471C30.9337 3.03268 27.8863 4.24212 27.043 6.31428C26.8289 6.84034 27.2605 7.38911 28.0072 7.53997C28.7539 7.69084 29.5327 7.38666 29.7468 6.86059Z" fill="#D3883E"/>
<path d="M21.4144 17.7384V12.9121H15.9928V17.7384C15.9928 18.5847 15.4573 19.3967 14.5321 19.9343L11.4155 21.7641H25.9917L22.8753 19.9343C21.9501 19.3853 21.4144 18.5847 21.4144 17.7384Z" fill="#D3883E"/>
<path d="M18.7043 16.629C12.455 16.629 7.39062 13.0607 7.39062 8.65759V0.811996C7.39062 0.365964 7.91003 0 8.54308 0H28.8817C29.5148 0 30.0342 0.365964 30.0342 0.811996V8.65759C30.0342 13.0607 24.9698 16.629 18.7043 16.629Z" fill="#FFB02E"/>
<path d="M30.2847 21.7642H6.59396C5.34439 21.7642 4.28311 22.3474 4.04348 23.1594L1.4245 31.2681C1.30468 31.6455 1.7326 32 2.3146 32H34.5811C35.163 32 35.5911 31.6455 35.4713 31.2681L32.8522 23.1594C32.5954 22.3474 31.5342 21.7642 30.2847 21.7642Z" fill="#6D4534"/>
<path d="M23.1283 25.1152H13.7689C13.2247 25.1152 12.7739 25.4355 12.7739 25.8472V27.9172C12.7739 28.3175 13.2091 28.6492 13.7689 28.6492H23.1283C23.6725 28.6492 24.1233 28.329 24.1233 27.9172V25.8472C24.1233 25.4469 23.688 25.1152 23.1283 25.1152Z" fill="#FFB02E"/>
</svg>
