<svg width="53" height="38" viewBox="0 0 53 38" fill="none" xmlns="http://www.w3.org/2000/svg">
<path d="M52.0823 12.945L46.9272 2.56143C46.5173 1.74462 45.8205 1.12842 44.985 0.844047C44.1496 0.559678 43.2416 0.62962 42.4544 1.03898L37.5745 3.60524H34.1395L27.2227 0.313374C26.4933 -0.0333751 25.6701 -0.0945776 24.9016 0.140804L14.6991 3.26923L10.0089 0.802663C9.22166 0.393583 8.31374 0.323776 7.47834 0.608097C6.64294 0.892418 5.946 1.50842 5.53586 2.32501L0.380772 12.7088C0.174665 13.1241 0.0492507 13.5784 0.0118486 14.0452C-0.0255535 14.512 0.0258051 14.9819 0.162928 15.4276C0.30005 15.8733 0.520191 16.2858 0.810505 16.6411C1.10082 16.9963 1.45549 17.2872 1.85383 17.4968L6.88466 20.1425L18.21 29.4572C18.5797 29.7621 19.0066 29.9813 19.4626 30.1005L31.6114 33.2951C31.875 33.3643 32.1456 33.3993 32.4173 33.3993C33.3089 33.3995 34.1642 33.0285 34.7966 32.3675L42.5099 24.2544C42.5181 24.2457 42.5254 24.2363 42.5334 24.2276C42.544 24.216 42.5542 24.2041 42.5645 24.1922C42.5758 24.1791 42.5878 24.1667 42.5987 24.1533L45.7318 20.2981L50.6093 17.7331C51.0076 17.5235 51.3623 17.2326 51.6526 16.8773C51.9429 16.5221 52.1631 16.1096 52.3002 15.6639C52.4373 15.2182 52.4887 14.7482 52.4512 14.2814C52.4138 13.8146 52.2884 13.3603 52.0823 12.945ZM41.0566 20.6217L33.0871 14.5255C32.7971 14.3036 32.4471 14.1853 32.0885 14.1881C31.7299 14.1909 31.3816 14.3145 31.0947 14.5409L28.4117 16.6575C27.5391 17.3402 26.4806 17.709 25.3931 17.709C24.3056 17.709 23.247 17.3402 22.3745 16.6575L21.2384 15.7612L29.4415 7.13286H33.769C33.7715 7.13287 33.7741 7.1333 33.7768 7.1333L33.7825 7.13286H36.9539L42.6669 18.6403L41.0566 20.6217ZM8.509 3.9578L12.2164 5.90754L7.06132 16.2914L3.35391 14.3416L8.509 3.9578ZM32.4249 29.873L20.2761 26.6784L9.91788 18.159L15.627 6.65913L25.8404 3.5274L27.4543 4.29556C27.3183 4.3997 27.1899 4.51433 27.07 4.6385L18.8667 13.2668C18.5269 13.6242 18.2641 14.0542 18.0961 14.5277C17.9281 15.0012 17.8588 15.5071 17.8929 16.0112C17.9269 16.5154 18.0636 17.0059 18.2936 17.4496C18.5236 17.8934 18.8415 18.28 19.2259 18.5832L20.3622 19.4795C21.8164 20.6175 23.5806 21.2321 25.3931 21.2321C27.2056 21.2321 28.9698 20.6175 30.4239 19.4795L32.1162 18.1446L38.7506 23.2195L32.4249 29.873ZM49.1092 14.5779L45.4018 16.5277L40.2467 6.14384L43.9541 4.19421L49.1112 14.5767L49.1092 14.5779ZM24.5044 36.6636C24.4513 36.8884 24.3565 37.1001 24.2255 37.2863C24.0944 37.4726 23.9297 37.6298 23.7408 37.749C23.5519 37.8682 23.3425 37.9471 23.1246 37.981C22.9067 38.0149 22.6845 38.0033 22.4709 37.9468L16.1531 36.2857C15.6405 36.1501 15.1654 35.8898 14.766 35.5257L10.039 31.2038C9.70329 30.8969 9.49726 30.4623 9.4662 29.9957C9.43514 29.529 9.5816 29.0685 9.87337 28.7154C10.1651 28.3624 10.5783 28.1457 11.022 28.113C11.4656 28.0803 11.9035 28.2344 12.2391 28.5413L16.9666 32.8634L23.2844 34.5247C23.4981 34.5809 23.6991 34.6807 23.876 34.8186C24.053 34.9565 24.2024 35.1297 24.3157 35.3283C24.429 35.5269 24.5039 35.7471 24.5363 35.9762C24.5687 36.2053 24.5579 36.4389 24.5044 36.6636Z" fill="#2B46A6"/>
</svg>
