<svg width="26" height="18" viewBox="0 0 26 18" fill="none" xmlns="http://www.w3.org/2000/svg">
<path d="M12.844 6.29565C14.5079 6.34856 14.9369 7.30966 14.9629 7.75935H17.2899C17.1859 6.01349 15.3529 4.94658 12.805 4.94658C9.93196 4.94658 7.79997 6.17221 7.79997 8.94088C7.79997 10.6515 9.00897 12.6795 12.792 12.6795C15.6779 12.6795 17.2249 11.2246 17.2639 10.0783H14.9369C14.8979 10.5986 14.3519 11.2951 12.818 11.348C11.115 11.3128 10.4 10.4134 10.4 8.94088C10.4 6.39264 12.064 6.31329 12.844 6.29565ZM12.9999 0C5.82398 0 0 3.95021 0 8.81744C0 13.6847 5.82398 17.6349 12.9999 17.6349C20.1759 17.6349 25.9999 13.6847 25.9999 8.81744C25.9999 3.95021 20.1759 0 12.9999 0ZM12.9999 15.8714C7.26697 15.8714 2.59999 12.7059 2.59999 8.81744C2.59999 4.92895 7.26697 1.76349 12.9999 1.76349C18.7329 1.76349 23.3999 4.92895 23.3999 8.81744C23.3999 12.7059 18.7329 15.8714 12.9999 15.8714Z" fill="white"/>
</svg>
