<svg width="22" height="20" viewBox="0 0 22 20" fill="none" xmlns="http://www.w3.org/2000/svg">
<path d="M18.7001 0H3.30002C2.4248 0 1.58543 0.39464 0.966554 1.0971C0.34768 1.79957 0 2.75231 0 3.74575V16.2316C0 17.225 0.34768 18.1777 0.966554 18.8802C1.58543 19.5827 2.4248 19.9773 3.30002 19.9773H18.7001C19.5754 19.9773 20.4147 19.5827 21.0336 18.8802C21.6525 18.1777 22.0002 17.225 22.0002 16.2316V3.74575C22.0002 2.75231 21.6525 1.79957 21.0336 1.0971C20.4147 0.39464 19.5754 0 18.7001 0ZM17.9631 2.49716L11.0001 8.42793L4.03703 2.49716H17.9631ZM18.7001 17.4801H3.30002C3.00828 17.4801 2.72849 17.3486 2.5222 17.1144C2.31591 16.8803 2.20002 16.5627 2.20002 16.2316V4.05789L10.3401 10.9875C10.5305 11.1496 10.7621 11.2372 11.0001 11.2372C11.2381 11.2372 11.4697 11.1496 11.6601 10.9875L19.8001 4.05789V16.2316C19.8001 16.5627 19.6842 16.8803 19.478 17.1144C19.2717 17.3486 18.9919 17.4801 18.7001 17.4801Z" fill="#F5F5F5"/>
</svg>
