<svg width="22" height="19" viewBox="0 0 22 19" fill="none" xmlns="http://www.w3.org/2000/svg">
<path d="M20.1118 5.97372C20.0671 5.18061 19.9121 4.63897 19.6855 4.1651C19.4555 3.66792 19.0945 3.21758 18.6283 2.84535C18.1704 2.4663 17.6163 2.17285 17.0045 1.98572C16.4214 1.80165 15.7552 1.67579 14.7795 1.63976C13.8019 1.60337 13.4896 1.59473 11.0002 1.59473C8.51072 1.59473 8.19839 1.60337 7.22082 1.63952C6.24507 1.67579 5.57886 1.80176 4.99573 1.98595C4.38407 2.17297 3.83004 2.4663 3.37209 2.84535C2.90576 3.21747 2.54476 3.66781 2.31453 4.16499C2.08806 4.63897 1.93322 5.18061 1.88889 5.97361C1.84412 6.76833 1.8335 7.02209 1.8335 9.0456C1.8335 11.0692 1.84412 11.3231 1.88889 12.1177C1.93336 12.9107 2.08835 13.4523 2.31494 13.9263C2.54503 14.4234 2.9059 14.8738 3.37223 15.246C3.83004 15.625 4.3842 15.9184 4.99587 16.1054C5.57886 16.2897 6.24521 16.4155 7.22097 16.4518C8.19866 16.488 8.51087 16.4965 11.0003 16.4965C13.4898 16.4965 13.802 16.488 14.7797 16.4518C15.7554 16.4155 16.4217 16.2897 17.0047 16.1054C18.236 15.7183 19.2094 14.9271 19.6855 13.9263C19.9123 13.4523 20.0671 12.9107 20.1118 12.1177C20.1562 11.323 20.1668 11.0692 20.1668 9.04571C20.1668 7.02209 20.1562 6.76833 20.1118 5.97372ZM18.4616 12.0567C18.4209 12.7832 18.2716 13.1777 18.1461 13.4402C17.8377 14.09 17.2058 14.6036 16.4064 14.8543C16.0834 14.9563 15.5981 15.0777 14.7043 15.1108C13.7379 15.1468 13.4479 15.1542 11.0002 15.1542C8.55227 15.1542 8.26245 15.1468 7.29593 15.1108C6.40229 15.0777 5.91693 14.9563 5.59382 14.8543C5.19574 14.7348 4.83558 14.5443 4.5399 14.2969C4.23539 14.0565 4.0011 13.7639 3.8541 13.4402C3.72863 13.1777 3.57925 12.7832 3.53854 12.0567C3.49448 11.271 3.48511 11.0353 3.48511 9.04582C3.48511 7.0562 3.49448 6.82062 3.53854 6.03489C3.57939 5.3084 3.72863 4.91388 3.8541 4.65137C4.0011 4.32768 4.23553 4.03492 4.5399 3.79457C4.83558 3.54707 5.19574 3.35663 5.59397 3.23725C5.91693 3.13516 6.40229 3.01385 7.29607 2.98064C8.26258 2.94483 8.55254 2.93721 11.0002 2.93721C13.4478 2.93721 13.7376 2.94483 14.7043 2.98075C15.5981 3.01385 16.0833 3.13527 16.4064 3.23725C16.8045 3.35674 17.1646 3.54718 17.4604 3.79457C17.7648 4.03492 17.9991 4.32768 18.1459 4.65137C18.2716 4.91388 18.4209 5.3084 18.4616 6.03489C18.5058 6.82051 18.5151 7.0562 18.5151 9.04571C18.5151 11.0353 18.5059 11.2709 18.4616 12.0567Z" fill="white"/>
<path d="M11.0001 5.21973C8.40042 5.21973 6.29297 6.93284 6.29297 9.04595C6.29297 11.159 8.40042 12.8721 11.0001 12.8721C13.5999 12.8721 15.7074 11.159 15.7074 9.04595C15.7074 6.93284 13.5999 5.21973 11.0001 5.21973ZM11.0001 11.5295C9.31266 11.5294 7.94458 10.4175 7.94472 9.04583C7.94472 7.67424 9.31266 6.56221 11.0002 6.56221C12.6878 6.56232 14.0558 7.67424 14.0558 9.04583C14.0558 10.4175 12.6876 11.5295 11.0001 11.5295Z" fill="white"/>
<path d="M16.9931 5.06851C16.9931 5.56229 16.5006 5.9626 15.8931 5.9626C15.2855 5.9626 14.793 5.56229 14.793 5.06851C14.793 4.57464 15.2855 4.17432 15.8931 4.17432C16.5006 4.17432 16.9931 4.57464 16.9931 5.06851Z" fill="white"/>
</svg>
